<?xml version="1.0" standalone="no"?>
<!DOCTYPE svg PUBLIC "-//W3C//DTD SVG 20010904//EN"
 "http://www.w3.org/TR/2001/REC-SVG-20010904/DTD/svg10.dtd">
<svg version="1.0" xmlns="http://www.w3.org/2000/svg"
 width="638.000000pt" height="699.000000pt" viewBox="0 0 638.000000 699.000000"
 preserveAspectRatio="xMidYMid meet">

<g transform="translate(0.000000,699.000000) scale(0.100000,-0.100000)"
fill="#000000" stroke="none">
<path d="M4885 6948 c-89 -9 -288 -57 -520 -125 -66 -20 -154 -43 -195 -53
-41 -10 -136 -36 -210 -58 -74 -22 -196 -56 -270 -76 -127 -34 -367 -113 -455
-150 -22 -10 -60 -24 -85 -32 -25 -8 -55 -20 -67 -26 -13 -6 -26 -8 -29 -5 -4
4 2 10 12 13 10 4 48 19 84 35 208 89 484 187 615 219 28 7 100 27 160 45 61
18 187 54 280 80 193 53 306 87 302 92 -4 4 -185 -24 -252 -38 -119 -26 -410
-111 -510 -149 -132 -51 -256 -92 -261 -87 -7 6 381 155 531 203 l150 49 -110
3 c-60 2 -164 -2 -230 -8 -66 -6 -185 -15 -265 -21 -214 -15 -509 -64 -680
-112 -95 -28 -323 -76 -475 -102 -122 -21 -344 -72 -567 -131 -404 -107 -780
-272 -980 -430 -101 -81 -250 -228 -334 -331 -123 -151 -233 -375 -265 -538
-16 -86 -16 -257 0 -345 25 -131 108 -292 203 -391 50 -53 194 -159 215 -159
7 0 57 -44 111 -98 95 -96 208 -172 232 -157 6 4 27 -7 48 -24 69 -54 205
-134 232 -135 17 -1 46 -20 83 -56 66 -64 148 -116 255 -161 76 -33 79 -33
234 -34 143 0 182 -5 146 -18 -7 -2 -10 -8 -6 -12 12 -12 159 21 271 61 163
58 499 229 693 354 203 131 450 268 639 356 33 15 72 33 88 40 15 7 27 11 27
9 0 -2 -35 -30 -77 -62 -43 -31 -195 -173 -338 -313 -261 -257 -382 -362 -530
-460 -44 -29 -110 -75 -147 -102 l-66 -49 -48 31 c-29 18 -61 30 -82 30 -38 0
-112 -37 -112 -55 0 -20 -32 -42 -80 -56 -27 -8 -62 -30 -89 -56 -30 -30 -52
-43 -72 -43 -18 0 -44 -14 -74 -40 -25 -22 -64 -44 -86 -50 -22 -6 -59 -24
-82 -40 -27 -19 -70 -35 -122 -45 -107 -22 -102 -21 -172 -44 -89 -29 -150
-72 -136 -95 4 -5 1 -6 -6 -1 -8 4 -27 -8 -52 -34 -22 -22 -49 -41 -60 -41
-20 0 -74 -35 -74 -48 -1 -22 -60 -62 -90 -62 -7 0 -16 -7 -19 -16 -3 -8 -10
-13 -15 -10 -13 8 -42 -4 -35 -15 8 -13 -6 -50 -16 -44 -7 5 -135 -40 -150
-52 -3 -3 3 -9 13 -15 18 -10 18 -10 0 -27 -10 -9 -44 -23 -76 -30 -31 -7 -57
-17 -57 -22 0 -5 -7 -9 -16 -9 -10 0 -14 -6 -10 -15 3 -9 0 -15 -7 -15 -7 0
-23 -9 -35 -20 -12 -11 -26 -20 -31 -20 -6 0 -15 -8 -20 -17 -6 -11 -11 -13
-11 -5 0 7 -4 11 -10 7 -5 -3 -7 -13 -4 -23 4 -11 3 -13 -3 -5 -5 7 -18 10
-30 7 -19 -5 -20 -9 -10 -26 10 -16 9 -21 -5 -32 -15 -11 -13 -15 22 -42 116
-89 377 -433 339 -446 -14 -5 -22 -125 -9 -133 6 -4 24 4 41 15 16 12 32 20
35 17 15 -15 44 -124 44 -166 0 -44 -4 -52 -32 -75 -18 -14 -29 -26 -25 -26
10 0 90 40 97 49 3 3 17 12 32 20 15 7 42 28 60 45 19 17 51 40 72 51 21 10
47 31 59 45 12 14 40 36 62 50 43 26 184 160 169 160 -5 0 9 9 31 19 42 19 95
72 95 95 0 8 17 16 38 19 41 7 95 55 107 95 4 16 14 22 33 22 30 0 52 13 124
73 34 27 71 78 128 171 59 99 94 145 134 180 30 25 56 56 58 68 2 16 12 24 36
29 39 8 100 62 104 93 2 14 13 22 35 27 43 8 101 57 109 92 5 19 13 27 29 27
31 0 109 62 125 100 8 19 10 47 6 73 -3 23 -7 49 -9 58 -1 11 60 63 182 155
220 166 348 279 495 440 236 257 333 344 583 520 32 23 95 69 141 103 46 34
78 53 73 43 -6 -11 -80 -86 -166 -167 -167 -159 -392 -410 -555 -619 -55 -71
-100 -130 -100 -131 0 -2 25 -15 56 -31 51 -26 95 -65 124 -111 6 -10 13 -13
16 -8 2 6 27 42 54 80 28 39 58 81 68 95 9 14 29 36 45 48 15 13 27 27 27 31
0 5 24 32 53 62 55 57 98 105 187 209 30 36 206 216 390 401 184 184 378 382
430 438 116 126 343 313 454 374 61 34 71 29 16 -7 -47 -31 -51 -39 -12 -26
473 159 505 171 687 270 235 127 349 280 362 485 13 203 -83 414 -248 545 -26
20 -98 59 -161 86 l-113 48 -130 0 c-71 0 -148 -3 -170 -7 -34 -6 -36 -5 -15
4 14 6 89 16 168 22 86 7 142 15 142 21 0 11 -24 39 -140 163 -51 54 -86 81
-146 111 -90 45 -182 76 -268 91 -70 13 -253 12 -381 -1z m-2655 -383 c-14 -8
-50 -19 -80 -25 -108 -22 -714 -231 -795 -274 -148 -80 -275 -162 -413 -269
-35 -27 -65 -47 -68 -44 -10 9 122 118 241 198 151 102 424 237 575 284 63 20
156 49 205 65 76 24 143 42 290 73 11 3 31 5 45 5 l25 1 -25 -14z m3243 -42
c-7 -2 -19 -2 -25 0 -7 3 -2 5 12 5 14 0 19 -2 13 -5z m-60 -10 c-7 -2 -21 -2
-30 0 -10 3 -4 5 12 5 17 0 24 -2 18 -5z m-2383 -103 c-8 -5 -19 -10 -25 -10
-5 0 -3 5 5 10 8 5 20 10 25 10 6 0 3 -5 -5 -10z m3047 -212 c13 -12 21 -23
19 -26 -7 -6 -116 58 -116 69 0 13 70 -18 97 -43z m-4622 -107 c-6 -5 -46 -28
-90 -51 -97 -51 -269 -158 -350 -219 -33 -25 -114 -99 -180 -165 -122 -122
-129 -126 -42 -23 52 61 54 70 8 36 -16 -12 -35 -19 -43 -17 -8 3 8 26 47 67
49 50 70 64 111 75 32 8 80 34 125 68 129 94 232 160 313 200 75 36 122 50
101 29z m3261 -2 c10 -16 -13 -33 -89 -64 -48 -20 -71 -25 -78 -18 -16 16 19
43 89 70 67 26 69 26 78 12z m1291 -71 c42 -43 83 -122 83 -159 0 -62 -81
-137 -230 -214 -104 -53 -169 -70 -157 -42 67 151 71 172 30 163 l-28 -7 26
23 c58 52 133 147 165 211 23 45 40 67 52 67 10 0 37 -19 59 -42z m-2017 12
c0 -11 -73 -50 -94 -50 -23 0 -8 28 23 45 30 16 71 19 71 5z m-2240 -34 c0 -2
-31 -20 -70 -40 -38 -20 -91 -49 -117 -66 -26 -16 -79 -48 -118 -71 -95 -57
-228 -195 -327 -341 -44 -65 -83 -118 -85 -118 -2 0 13 30 34 68 84 155 259
348 388 430 101 64 295 155 295 138z m458 -99 c-38 -30 -76 -60 -187 -145
-140 -106 -288 -237 -350 -308 -29 -35 -84 -109 -122 -166 -80 -119 -92 -119
-20 0 132 221 274 360 564 556 124 83 171 109 115 63z m1462 10 c0 -25 -36
-47 -126 -77 -117 -40 -265 -82 -271 -77 -8 9 167 93 267 128 122 42 130 44
130 26z m1746 -14 c-10 -10 -19 5 -10 18 6 11 8 11 12 0 2 -7 1 -15 -2 -18z
m885 -67 c20 18 20 18 13 -11 -3 -17 -18 -46 -32 -65 -39 -54 -189 -200 -206
-200 -7 0 16 30 53 68 65 64 124 162 135 223 7 37 9 37 13 1 4 -33 5 -33 24
-16z m-5701 -33 c0 -3 -20 -40 -44 -82 -24 -42 -58 -104 -75 -138 -30 -61 -59
-87 -46 -40 13 43 96 202 122 235 25 30 43 41 43 25z m405 -111 c-28 -26 -61
-56 -74 -67 l-24 -20 18 28 c17 26 111 107 124 107 3 0 -17 -22 -44 -48z
m1230 -5 c-22 -17 -67 -57 -100 -88 -79 -73 -122 -103 -122 -84 0 22 141 147
199 177 68 35 71 34 23 -5z m-1584 -180 c-10 -9 -11 -8 -5 6 3 10 9 15 12 12
3 -3 0 -11 -7 -18z m-17 -32 c-4 -8 -11 -15 -16 -15 -6 0 -5 6 2 15 7 8 14 15
16 15 2 0 1 -7 -2 -15z m1356 -1 c0 -3 -7 -12 -15 -20 -16 -17 -18 -14 -9 10
6 15 24 23 24 10z m2725 -13 c-8 -13 -166 -73 -173 -66 -3 3 3 8 13 11 11 3
52 18 90 34 39 15 71 28 73 29 2 1 1 -3 -3 -8z m-3764 -52 c-26 -60 -55 -148
-81 -249 -27 -106 -45 -129 -35 -45 9 78 66 251 100 305 33 53 42 46 16 -11z
m985 -6 c-8 -16 -26 -39 -41 -53 -15 -14 -34 -38 -43 -55 -8 -16 -17 -25 -19
-18 -6 18 94 150 115 153 1 0 -4 -12 -12 -27z m1759 14 c-25 -17 -106 -49
-111 -44 -7 7 90 57 111 57 19 0 19 0 0 -13z m-730 -37 c-9 -15 -129 -90 -262
-166 -65 -36 -121 -68 -125 -71 -4 -2 -5 2 -2 9 7 19 75 66 184 130 164 96
220 123 205 98z m1550 0 c-28 -12 -37 -12 -30 0 3 6 16 10 28 9 21 0 21 -1 2
-9z m-55 -20 c0 -5 -8 -10 -17 -10 -15 0 -16 2 -3 10 19 12 20 12 20 0z m1205
-20 c-3 -5 -12 -10 -18 -10 -7 0 -6 4 3 10 19 12 23 12 15 0z m-3575 -5 c0 -6
-62 -45 -72 -45 -20 0 -4 23 25 35 35 15 47 18 47 10z m2276 -15 c-58 -29
-228 -92 -233 -86 -5 5 9 11 112 54 95 39 130 51 145 51 8 0 -3 -9 -24 -19z
m-3774 -32 c-7 -7 -12 -8 -12 -2 0 14 12 26 19 19 2 -3 -1 -11 -7 -17z m2836
17 c-8 -8 -246 -100 -373 -144 -60 -21 -145 -53 -189 -70 -78 -32 -116 -37
-54 -8 105 48 127 57 418 160 85 30 162 57 170 60 20 7 35 8 28 2z m-2673 -22
c-4 -10 -18 -49 -31 -87 -29 -84 -39 -96 -29 -36 9 54 44 140 57 140 6 0 7 -8
3 -17z m1482 -15 c-3 -8 -6 -5 -6 6 -1 11 2 17 5 13 3 -3 4 -12 1 -19z m308 6
c-22 -18 -126 -67 -165 -79 -14 -4 -31 -13 -39 -19 -11 -8 -13 -8 -7 1 14 25
100 76 155 94 70 22 81 22 56 3z m-1179 -126 c-19 -46 -44 -120 -56 -163 -26
-96 -39 -123 -40 -79 0 64 61 247 109 323 29 45 22 3 -13 -81z m324 86 c0 -3
-11 -29 -24 -58 -13 -28 -38 -99 -56 -156 -19 -63 -35 -98 -40 -91 -14 24 31
178 79 263 23 42 41 60 41 42z m120 -8 c0 -3 -4 -8 -10 -11 -5 -3 -10 -1 -10
4 0 6 5 11 10 11 6 0 10 -2 10 -4z m2180 -64 c-74 -37 -169 -83 -210 -101
-189 -85 -400 -196 -525 -276 -99 -63 -139 -87 -235 -138 -41 -22 -113 -66
-160 -97 -92 -61 -265 -167 -317 -194 -65 -33 -30 0 50 48 45 27 146 91 224
142 78 51 195 123 260 160 65 37 176 103 247 147 117 71 219 124 391 202 33
15 87 40 120 55 126 60 261 118 275 119 8 0 -46 -30 -120 -67z m-1790 41 c0
-5 -9 -19 -20 -33 -11 -14 -20 -29 -20 -35 -1 -15 -70 -122 -70 -109 0 17 28
82 39 88 5 4 15 23 22 44 11 35 24 51 42 52 4 0 7 -3 7 -7z m-214 -205 c-8
-40 -18 -90 -21 -110 -7 -42 -25 -61 -25 -26 0 48 21 154 37 192 24 53 27 30
9 -56z m-1243 -318 c3 -65 3 -82 -3 -55 -9 39 -14 162 -6 154 2 -2 6 -47 9
-99z m2938 70 c-13 -11 -28 -20 -35 -20 -6 0 3 9 19 20 38 25 47 25 16 0z
m-2890 -294 c10 -33 17 -61 15 -64 -6 -6 -56 155 -55 176 1 9 6 1 11 -18 6
-19 19 -62 29 -94z m38 -106 c11 -24 11 -24 -3 -6 -9 11 -16 24 -16 30 0 12 5
7 19 -24z m1651 -25 c-14 -8 -29 -14 -35 -14 -5 0 1 6 15 14 14 8 30 14 35 14
6 0 -1 -6 -15 -14z m-1601 -61 c12 -19 16 -32 11 -29 -11 7 -43 65 -36 65 2 0
13 -16 25 -36z m71 -99 c13 -14 21 -25 18 -25 -2 0 -15 11 -28 25 -13 14 -21
25 -18 25 2 0 15 -11 28 -25z m55 -64 c-6 -5 -25 10 -25 20 0 5 6 4 14 -3 8
-7 12 -15 11 -17z m2075 -403 c-184 -172 -420 -354 -420 -325 0 8 42 45 93 83
50 38 132 103 180 144 101 86 147 120 161 120 5 0 -1 -10 -14 -22z m-2219
-1565 c13 -16 12 -17 -3 -4 -17 13 -22 21 -14 21 2 0 10 -8 17 -17z"/>
<path d="M900 6178 c-19 -6 -84 -26 -145 -44 -146 -43 -230 -75 -323 -124 -91
-47 -111 -65 -174 -153 -47 -65 -78 -85 -78 -49 -1 28 -53 -40 -97 -126 -37
-73 -38 -79 -37 -176 0 -89 3 -108 27 -157 25 -50 121 -159 131 -148 2 2 13
37 24 78 l20 73 -23 34 c-13 19 -27 48 -30 65 -17 77 48 205 149 292 69 59
193 137 219 137 26 0 151 96 222 171 31 32 76 70 100 84 42 25 76 56 59 54 -5
-1 -25 -6 -44 -11z"/>
<path d="M428 5725 c-25 -34 -22 -43 3 -11 12 15 20 29 18 31 -2 1 -12 -7 -21
-20z"/>
<path d="M413 5652 c-44 -67 -113 -203 -113 -221 0 -3 20 30 43 74 24 44 62
111 85 149 24 38 41 70 39 72 -2 2 -26 -31 -54 -74z"/>
<path d="M271 5368 c-23 -58 -46 -157 -38 -164 3 -3 10 17 16 45 6 28 20 76
31 108 25 72 19 80 -9 11z"/>
<path d="M3018 3153 c-38 -10 -43 -104 -8 -160 12 -19 12 -27 -6 -60 -16 -31
-27 -39 -61 -45 -23 -3 -59 -16 -82 -27 -61 -31 -76 -58 -242 -406 -29 -60
-55 -114 -58 -120 -3 -5 8 0 23 13 16 12 38 22 49 22 16 0 12 -6 -18 -30 -21
-16 -42 -30 -47 -30 -23 0 -169 -124 -192 -163 -26 -45 -73 -163 -79 -200 -2
-12 -9 -35 -15 -50 -7 -16 -12 -32 -12 -36 0 -5 -18 -62 -41 -127 -22 -65 -46
-142 -54 -171 -7 -28 -16 -56 -19 -61 -3 -6 -15 -43 -25 -84 -10 -40 -26 -90
-35 -110 -17 -41 -11 -49 16 -20 48 51 155 99 252 113 145 22 339 -20 481
-103 96 -57 198 -160 236 -240 l30 -63 -7 55 c-3 30 -7 64 -8 76 -1 11 -5 24
-8 30 -2 5 3 17 14 26 17 17 18 16 18 -41 0 -33 4 -62 9 -66 14 -8 24 57 19
120 -3 33 -1 53 5 52 16 -3 32 72 18 86 -8 8 -14 2 -22 -21 -6 -18 -15 -32
-20 -32 -13 0 -11 21 5 50 12 23 10 27 -13 47 l-26 23 30 -15 c16 -8 31 -12
33 -10 10 10 1 118 -13 151 -15 36 -15 37 3 21 36 -33 50 -22 46 34 -2 27 -6
54 -9 60 -4 5 -1 9 6 9 8 0 6 6 -4 18 -21 23 -22 39 -2 22 8 -7 22 -10 31 -6
12 5 15 18 11 68 -2 35 -7 72 -11 83 -5 11 -4 15 1 9 4 -6 16 -13 25 -17 23
-8 32 22 23 75 -6 32 -4 39 6 33 9 -6 10 -3 4 11 -4 10 -9 36 -11 56 -4 46
-25 88 -70 138 -20 22 -33 43 -30 48 3 5 1 23 -4 40 -6 22 -5 34 3 39 6 3 13
1 15 -5 2 -6 10 -8 18 -5 8 3 17 -2 20 -12 11 -26 25 4 18 37 -4 23 -3 27 10
22 13 -5 15 4 12 64 -3 58 -1 69 11 65 12 -5 14 5 12 53 -1 33 -8 75 -16 94
l-14 35 25 -30 25 -30 1 50 c0 33 -9 68 -26 105 -44 93 -46 109 -21 143 12 17
27 45 34 61 l11 31 1 -28 c1 -38 21 -24 21 15 0 94 -124 206 -245 220 -22 3
-48 3 -57 1z m12 -1023 c19 -11 31 -19 25 -19 -5 0 -26 8 -45 19 -19 11 -30
19 -25 19 6 0 26 -8 45 -19z m-40 -140 c8 -5 11 -10 5 -10 -5 0 -17 5 -25 10
-8 5 -10 10 -5 10 6 0 17 -5 25 -10z m-75 -298 c-3 -3 -11 0 -18 7 -9 10 -8
11 6 5 10 -3 15 -9 12 -12z m-100 -322 c3 -5 1 -10 -4 -10 -6 0 -11 5 -11 10
0 6 2 10 4 10 3 0 8 -4 11 -10z"/>
<path d="M742 2010 c2 -49 23 -79 61 -85 15 -3 27 -3 27 0 0 10 -68 113 -79
119 -7 5 -10 -7 -9 -34z"/>
<path d="M710 2016 c0 -2 7 -9 15 -16 13 -11 14 -10 9 4 -5 14 -24 23 -24 12z"/>
<path d="M290 1990 c0 -21 19 -34 43 -28 9 2 5 10 -15 26 -28 23 -28 23 -28 2z"/>
<path d="M400 1889 c0 -5 -10 -9 -22 -7 -20 3 -23 -1 -20 -26 2 -16 -2 -32 -9
-36 -15 -10 -3 -30 18 -30 9 0 13 -6 10 -15 -7 -17 9 -30 18 -15 4 6 14 2 24
-11 l18 -22 -1 23 c-1 29 29 39 38 13 3 -10 9 -24 12 -30 4 -9 -2 -13 -17 -13
-20 0 -16 -7 32 -52 30 -29 67 -70 83 -90 39 -51 50 -48 24 7 -12 25 -26 45
-30 45 -4 0 -17 9 -28 20 -16 16 -18 25 -11 39 8 14 2 29 -27 71 -20 29 -41
60 -47 69 -17 28 -53 71 -59 71 -3 0 -6 -5 -6 -11z"/>
<path d="M776 1809 c-11 -10 -15 -19 -9 -19 5 0 18 9 28 20 23 26 6 25 -19 -1z"/>
<path d="M600 1813 c0 -5 10 -18 23 -29 l22 -19 -20 25 c-11 14 -21 27 -22 29
-2 2 -3 0 -3 -6z"/>
<path d="M920 1647 c0 -50 -22 -75 -41 -46 -6 10 -9 7 -9 -12 0 -32 -21 -54
-37 -38 -7 7 -12 3 -15 -13 -4 -21 -1 -23 43 -23 28 -1 47 4 46 10 -1 5 9 10
23 9 56 -2 68 73 20 127 l-30 34 0 -48z"/>
<path d="M2254 1054 c-16 -7 -54 -22 -85 -34 -31 -12 -71 -37 -89 -55 -18 -19
-37 -32 -42 -29 -12 7 -34 -19 -58 -71 -37 -77 -16 -220 41 -281 l22 -24 30
53 c41 71 44 48 7 -52 -17 -48 -30 -102 -30 -129 0 -57 31 -124 77 -166 19
-17 50 -45 68 -63 44 -42 145 -73 241 -73 132 0 219 50 264 152 16 38 26 48
53 53 82 18 172 88 208 161 54 113 -20 306 -155 401 -20 15 -36 31 -36 37 -1
13 -66 56 -84 56 -8 0 -19 7 -26 15 -7 8 -25 15 -41 15 -15 0 -31 5 -34 10 -3
6 -19 10 -35 10 -16 0 -32 5 -35 11 -4 6 -19 10 -33 9 -15 -1 -29 -1 -32 0
-18 9 -172 4 -196 -6z m-237 -346 c-3 -8 -6 -5 -6 6 -1 11 2 17 5 13 3 -3 4
-12 1 -19z m940 -70 c-3 -7 -5 -2 -5 12 0 14 2 19 5 13 2 -7 2 -19 0 -25z
m-677 -33 c8 -9 8 -15 2 -15 -18 0 -42 12 -42 21 0 14 26 10 40 -6z m230 -30
c7 -9 10 -18 7 -21 -6 -7 -47 18 -47 28 0 14 27 9 40 -7z m421 -18 c-10 -9
-11 -8 -5 6 3 10 9 15 12 12 3 -3 0 -11 -7 -18z m-251 -252 c0 -9 -6 -12 -15
-9 -8 4 -15 10 -15 15 0 5 7 9 15 9 8 0 15 -7 15 -15z"/>
</g>
</svg>
